<?xml version="1.0" encoding="UTF-8"?>
<svg width="112px" height="72px" viewBox="0 0 112 72" version="1.1" xmlns="http://www.w3.org/2000/svg" xmlns:xlink="http://www.w3.org/1999/xlink">
    <!-- Generator: Sketch 46.1 (44463) - http://www.bohemiancoding.com/sketch -->
    <title>Componentes/imagen/card Empty</title>
    <desc>Created with Sketch.</desc>
    <defs>
        <path d="M14,0 C6.26803333,0 0,6.26803333 0,14 C0,21.7319667 6.26803333,28 14,28 C21.7319667,28 28,21.7319667 28,14 C28,6.26803333 21.7319667,0 14,0" id="path-1"></path>
    </defs>
    <g id="Symbols" stroke="none" stroke-width="1" fill="none" fill-rule="evenodd">
        <g id="Componentes/imagen/card-Empty">
            <rect id="Rectangle-10-Copy-4" fill="#E7E7E7" x="0" y="0" width="110" height="72" rx="3"></rect>
            <rect id="Rectangle-10-Copy-4" fill="#E5E5E5" x="2" y="0" width="110" height="72" rx="3"></rect>
            <path d="M6.15384615,0 L3,0 L3,4.4408921e-16 C1.34314575,7.48448398e-16 2.41183085e-16,1.34314575 4.4408921e-16,3 L0,3 L7.06505561e-17,13.5 L0,24 L9.30769231,24 L9.30769231,0 L6.15384615,0 Z" id="Combined-Shape" fill="#B0AEAE"></path>
            <path d="M0,23 L9.30769231,23 L9.30769231,47 L0,47 L0,23 Z" id="Combined-Shape" fill="#C8C8C8"></path>
            <path d="M0,58.0783133 L0,69.1566265 C2.02906125e-16,70.8134808 1.34314575,72.1566265 3,72.1566265 L6.15384615,72.1566265 L9.30769231,72.1566265 L9.30769231,47 L0,47 L0,58.0783133 Z" id="Combined-Shape" fill="#ECECEC"></path>
            <path d="M72.2716441,-3.86138604e-16 L109,-3.86138604e-16 L109,-8.8817842e-16 C110.656854,-1.19254107e-15 112,1.34314575 112,3 L112,69 L112,69 C112,70.6568542 110.656854,72 109,72 L37,72 L72.2716441,-3.86138604e-16 Z" id="Rectangle-10-Copy-4" fill="#ECECEC"></path>
            <g id="Group-2" transform="translate(46.000000, 21.000000)">
                <mask id="mask-2" fill="white">
                    <use xlink:href="#path-1"></use>
                </mask>
                <use id="Mask" fill="#C8C8C8" xlink:href="#path-1"></use>
                <g id="Group" mask="url(#mask-2)" fill="#FFFFFF">
                    <g transform="translate(9.333333, 6.787879)" id="Path">
                        <path d="M7.21946716,6.94394385 C5.58922594,7.86064649 5.60722297,8.25078972 5.60722297,10.1818182 L3.24248542,10.1818182 C3.18873589,9.65514229 3.17085965,9.26499905 3.17085965,8.77746562 C3.17085965,7.29506111 4.01285502,6.43672269 5.06972772,5.81265661 C6.05509542,5.20792876 6.50284709,4.77887605 6.50284709,3.82303094 C6.50284709,3.04286096 5.89384684,2.49673033 4.81897712,2.49673033 C3.63660834,2.49673033 2.43636332,3.29635504 1.73774028,4.19371944 L0,2.41867838 C1.09286676,1.09237777 2.75886048,0 5.12347724,0 C7.84646444,0 9.33333333,1.50197574 9.33333333,3.56953686 C9.33333333,5.3834874 8.38395969,6.26128056 7.21946716,6.94394385"></path>
                        <path d="M4.24242424,15.2727273 C3.30524444,15.2727273 2.54545455,14.5129374 2.54545455,13.5757576 C2.54545455,12.6385778 3.30524444,11.8787879 4.24242424,11.8787879 C5.17971717,11.8787879 5.93939394,12.6385778 5.93939394,13.5757576 C5.93939394,14.5129374 5.17971717,15.2727273 4.24242424,15.2727273"></path>
                    </g>
                </g>
            </g>
        </g>
    </g>
</svg>